<svg xmlns="http://www.w3.org/2000/svg" xmlns:xlink="http://www.w3.org/1999/xlink" viewBox="0 0 1900.32 657.8"><defs><style>.cls-1{fill:url(#linear-gradient);}.cls-2{clip-path:url(#clip-path);}.cls-3{fill:url(#linear-gradient-4);}.cls-4{fill:url(#linear-gradient-5);}.cls-5{fill:url(#linear-gradient-6);}.cls-6{fill:url(#linear-gradient-7);}.cls-7{fill:url(#linear-gradient-8);}.cls-8{fill:url(#linear-gradient-9);}.cls-9{fill:url(#linear-gradient-10);}</style><linearGradient id="linear-gradient" y1="328.9" x2="576.36" y2="328.9" gradientUnits="userSpaceOnUse"><stop offset="0.03" stop-color="#14b1e7"/><stop offset="0.22" stop-color="#0d9ad7"/><stop offset="0.45" stop-color="#0684c8"/><stop offset="0.68" stop-color="#0177bf"/><stop offset="0.88" stop-color="#0072bc"/></linearGradient><clipPath id="clip-path"><path class="cls-1" d="M407.81,108.26a12.46,12.46,0,0,1-4.38-13.9l-95.23-55a24.84,24.84,0,0,1-7.4,6.89l68.69,143.82ZM542,340.33a12.51,12.51,0,0,1,6.93-4.07V199.78c-.37,0-.73,0-1.09,0a25.57,25.57,0,0,1-4.82-.46l-44.75,90.92a25,25,0,0,1,9.7,31.09ZM260.11,523.66a12.4,12.4,0,0,1-10-6.47l-96.85,29.43c0,.38,0,.77,0,1.16a12.44,12.44,0,0,1-.63,3.93l5.18,3,110.12,63.58a24.94,24.94,0,0,1,12.17-9Zm219.24-79.39a12.42,12.42,0,0,1-9.49,4.39,11.59,11.59,0,0,1-1.19-.05l-27.18,88.27a12.64,12.64,0,0,1,3.33,2.66l83.84-48.42a25,25,0,0,1-.22-20Zm-5.53-19.81a12.43,12.43,0,0,1,8.47,11.79,12.89,12.89,0,0,1-.55,3.65l49.09,26.86a25,25,0,0,1,18.09-10.71V360.6A12.42,12.42,0,0,1,539,348.44a12.27,12.27,0,0,1,.58-3.76l-34-19a24.93,24.93,0,0,1-20.47,10.68h-.51ZM82,397.11a12.43,12.43,0,0,1,7.11-20.7l2.71-68a24.75,24.75,0,0,1-13.09-6.07L35.59,342a12.26,12.26,0,0,1,1.79,6.41,12.41,12.41,0,0,1-9.92,12.16v95.45a24.75,24.75,0,0,1,9.95,3.2ZM468.62,205c0,.37.05.75.05,1.13a12.43,12.43,0,0,1-6.78,11.07l19.25,69.6a25.29,25.29,0,0,1,3.92-.31,24.94,24.94,0,0,1,8.73,1.57l44.39-90.18a25,25,0,0,1-11.81-10.28Zm-8.05-10.52a12.35,12.35,0,0,1,6.62,5.75L524.25,183a24.54,24.54,0,0,1-1.38-8.17,24.79,24.79,0,0,1,2.21-10.26l-55-31.74ZM323.87,505.61a25,25,0,0,1-6.54-42.13L288.8,421.81l-22.89,78.05a12.43,12.43,0,0,1-.82,23.15L285,608.1a24.42,24.42,0,0,1,3.22-.2,24.94,24.94,0,0,1,4.76.45ZM353,498a25,25,0,0,1-24.35,9L297.73,609.79a25.1,25.1,0,0,1,10.71,8.49L418.55,554.7l5.19-3a12.53,12.53,0,0,1,.19-8.38Zm21.28-306.41h21.26l27.21-2.53L446,199a12.38,12.38,0,0,1,9.61-5.32l9.82-63.53-41-23.64a12.37,12.37,0,0,1-9.28,4.17,12.75,12.75,0,0,1-2.92-.33ZM153.66,283.85V252.66L118,273.39a25.1,25.1,0,0,1,2.19,8.95Zm0,112.42V288.84L120,287.33a25,25,0,0,1-11.47,17.56Zm0,18.62v-7.36L104.06,307.1a24.92,24.92,0,0,1-7.26,1.54l-2.71,68a12.43,12.43,0,0,1,9.45,12.06,12.3,12.3,0,0,1-.33,2.86Zm0,9v-3.48L101.1,396.05a12.44,12.44,0,0,1-15,4l-44.6,62.13a24.75,24.75,0,0,1,5.41,6.78Zm0,39.79V429.25L48.8,473.51a25,25,0,0,1-1.09,17.62l83.85,48.41a12.34,12.34,0,0,1,9-4.18Zm54.13-163.9V466.19H158.26l-12.78,70.06a12.53,12.53,0,0,1,6.29,5.61l96.86-29.43a11.12,11.12,0,0,1-.06-1.16,12.39,12.39,0,0,1,6.15-10.71Zm74.15,111.17L212,295.63,259.47,499a11,11,0,0,1,1.53-.1h0l24.18-82.35A60.89,60.89,0,0,1,281.94,410.91Zm86.67,39.29V288.11L291.2,415.46l-.68,0,30.93,45.17A24.94,24.94,0,0,1,351,464.8Zm51.13,16H368.61v-9.5l-14.47,12a25,25,0,0,1,1.54,25.17l70.93,45.32a12.43,12.43,0,0,1,4.52-3l-11.21-69.41Zm2.6-39.85v31l2.44,8.25,11.27,69.75.68,0,27.17-88.28a12.39,12.39,0,0,1-6.45-10.89v-.69Zm0-174.08V421.19l36.38,9.54a12.47,12.47,0,0,1,10.14-6.87l10.72-88.09a24.94,24.94,0,0,1-13.83-40.13Zm0-57.93v50.89l46.93,46.89a24.89,24.89,0,0,1,7-4.05l-19.23-69.55c-.27,0-.55,0-.83,0a12.43,12.43,0,0,1-12.43-12.42,12.85,12.85,0,0,1,.25-2.5Zm-111.08-7.71a25,25,0,0,1-20.83,17l.06,113.67,72.23-119.48ZM290.1,154a24.93,24.93,0,0,1,22.41,24.82,23.86,23.86,0,0,1-.17,2.95l53.12,11.51h0L296.3,48.43a24.89,24.89,0,0,1-6,1.35Zm-65-.68a12.48,12.48,0,0,1-9.13,5.1l-4.66,36.4L285.51,317l-.07-113.38a25,25,0,0,1-22.82-24.86,25.24,25.24,0,0,1,1.28-8Zm-1.65-16.44a12.42,12.42,0,0,1,4,9.15,12.9,12.9,0,0,1-.3,2.73L266,166.3A24.94,24.94,0,0,1,285.13,154l.18-104.19a25,25,0,0,1-8.13-2.26Zm-8.4-3.28a12.36,12.36,0,0,1,4.13.71l53.75-89.35a25.46,25.46,0,0,1-5.24-5.28L157.81,103.09l-3.92,2.28a12,12,0,0,1,.15,1.91,12.81,12.81,0,0,1-.49,3.47l51.88,27.37A12.42,12.42,0,0,1,215,133.58Zm-82.21,39.81v.11a12.41,12.41,0,0,1-9.16,12L104,260.34a25.12,25.12,0,0,1,11.5,8.74l38.14-22.19V191.61h53L211,157.76a12.49,12.49,0,0,1-6.92-5.85Zm-3.69-8.74a12.85,12.85,0,0,1,2.65,3.84l70.86-21.37c0-.37-.05-.73-.05-1.11a12.51,12.51,0,0,1,.5-3.48l-51.88-27.37a12.4,12.4,0,0,1-9.61,4.53h-.68ZM36.4,199.11a25.06,25.06,0,0,1-8.94,2.64V336.26a12.44,12.44,0,0,1,4.77,2.1L75.34,298.7a24.95,24.95,0,0,1,4.2-34.31Zm13.47-20.76a24.91,24.91,0,0,1-9.29,18l43.11,65.26a25.17,25.17,0,0,1,15.51-2.55l19.24-73.32a12.47,12.47,0,0,1-10.12-9.37Zm-2.16-11.68a25.58,25.58,0,0,1,1.95,6.71l58.5-2a12.43,12.43,0,0,1,16.56-9.57l11.38-43.42a12.68,12.68,0,0,1-2.28-1.47Zm263-131.62,95.26,55a12.43,12.43,0,0,1,21.72,8.25,12.78,12.78,0,0,1-.63,3.93l100.55,58.06a25,25,0,1,1,26.34,38.78v137.2a12.42,12.42,0,0,1,0,24.34v95.45a24.95,24.95,0,1,1-22.75,39.41l-83.84,48.4a12.11,12.11,0,0,1,.63,3.92A12.42,12.42,0,0,1,426.24,556L310.93,622.6a25,25,0,1,1-45.5,0L150.12,556a12.42,12.42,0,0,1-21.07-12.17l-83.84-48.4a25,25,0,1,1-22.75-39.41V360.6a12.42,12.42,0,0,1,0-24.34V201.75a25,25,0,1,1,22.75-39.4l85.39-49.3a12.43,12.43,0,0,1,21.51-12.42L265.16,35.35a25,25,0,1,1,45.51-.3Z"/></clipPath><linearGradient id="linear-gradient-4" x1="754.08" y1="409.3" x2="767.63" y2="210.53" xlink:href="#linear-gradient"/><linearGradient id="linear-gradient-5" x1="958.1" y1="423.22" x2="971.65" y2="224.44" xlink:href="#linear-gradient"/><linearGradient id="linear-gradient-6" x1="1093.18" y1="432.42" x2="1106.73" y2="233.65" xlink:href="#linear-gradient"/><linearGradient id="linear-gradient-7" x1="1227.69" y1="441.6" x2="1241.25" y2="242.82" xlink:href="#linear-gradient"/><linearGradient id="linear-gradient-8" x1="1387.01" y1="452.46" x2="1400.56" y2="253.68" xlink:href="#linear-gradient"/><linearGradient id="linear-gradient-9" x1="1541.5" y1="462.99" x2="1555.05" y2="264.22" xlink:href="#linear-gradient"/><linearGradient id="linear-gradient-10" x1="1759.72" y1="477.87" x2="1773.27" y2="279.1" xlink:href="#linear-gradient"/></defs><g id="Layer_2" data-name="Layer 2"><g id="Layer_1-2" data-name="Layer 1"><path class="cls-1" d="M407.81,108.26a12.46,12.46,0,0,1-4.38-13.9l-95.23-55a24.84,24.84,0,0,1-7.4,6.89l68.69,143.82ZM542,340.33a12.51,12.51,0,0,1,6.93-4.07V199.78c-.37,0-.73,0-1.09,0a25.57,25.57,0,0,1-4.82-.46l-44.75,90.92a25,25,0,0,1,9.7,31.09ZM260.11,523.66a12.4,12.4,0,0,1-10-6.47l-96.85,29.43c0,.38,0,.77,0,1.16a12.44,12.44,0,0,1-.63,3.93l5.18,3,110.12,63.58a24.94,24.94,0,0,1,12.17-9Zm219.24-79.39a12.42,12.42,0,0,1-9.49,4.39,11.59,11.59,0,0,1-1.19-.05l-27.18,88.27a12.64,12.64,0,0,1,3.33,2.66l83.84-48.42a25,25,0,0,1-.22-20Zm-5.53-19.81a12.43,12.43,0,0,1,8.47,11.79,12.89,12.89,0,0,1-.55,3.65l49.09,26.86a25,25,0,0,1,18.09-10.71V360.6A12.42,12.42,0,0,1,539,348.44a12.27,12.27,0,0,1,.58-3.76l-34-19a24.93,24.93,0,0,1-20.47,10.68h-.51ZM82,397.11a12.43,12.43,0,0,1,7.11-20.7l2.71-68a24.75,24.75,0,0,1-13.09-6.07L35.59,342a12.26,12.26,0,0,1,1.79,6.41,12.41,12.41,0,0,1-9.92,12.16v95.45a24.75,24.75,0,0,1,9.95,3.2ZM468.62,205c0,.37.05.75.05,1.13a12.43,12.43,0,0,1-6.78,11.07l19.25,69.6a25.29,25.29,0,0,1,3.92-.31,24.94,24.94,0,0,1,8.73,1.57l44.39-90.18a25,25,0,0,1-11.81-10.28Zm-8.05-10.52a12.35,12.35,0,0,1,6.62,5.75L524.25,183a24.54,24.54,0,0,1-1.38-8.17,24.79,24.79,0,0,1,2.21-10.26l-55-31.74ZM323.87,505.61a25,25,0,0,1-6.54-42.13L288.8,421.81l-22.89,78.05a12.43,12.43,0,0,1-.82,23.15L285,608.1a24.42,24.42,0,0,1,3.22-.2,24.94,24.94,0,0,1,4.76.45ZM353,498a25,25,0,0,1-24.35,9L297.73,609.79a25.1,25.1,0,0,1,10.71,8.49L418.55,554.7l5.19-3a12.53,12.53,0,0,1,.19-8.38Zm21.28-306.41h21.26l27.21-2.53L446,199a12.38,12.38,0,0,1,9.61-5.32l9.82-63.53-41-23.64a12.37,12.37,0,0,1-9.28,4.17,12.75,12.75,0,0,1-2.92-.33ZM153.66,283.85V252.66L118,273.39a25.1,25.1,0,0,1,2.19,8.95Zm0,112.42V288.84L120,287.33a25,25,0,0,1-11.47,17.56Zm0,18.62v-7.36L104.06,307.1a24.92,24.92,0,0,1-7.26,1.54l-2.71,68a12.43,12.43,0,0,1,9.45,12.06,12.3,12.3,0,0,1-.33,2.86Zm0,9v-3.48L101.1,396.05a12.44,12.44,0,0,1-15,4l-44.6,62.13a24.75,24.75,0,0,1,5.41,6.78Zm0,39.79V429.25L48.8,473.51a25,25,0,0,1-1.09,17.62l83.85,48.41a12.34,12.34,0,0,1,9-4.18Zm54.13-163.9V466.19H158.26l-12.78,70.06a12.53,12.53,0,0,1,6.29,5.61l96.86-29.43a11.12,11.12,0,0,1-.06-1.16,12.39,12.39,0,0,1,6.15-10.71Zm74.15,111.17L212,295.63,259.47,499a11,11,0,0,1,1.53-.1h0l24.18-82.35A60.89,60.89,0,0,1,281.94,410.91Zm86.67,39.29V288.11L291.2,415.46l-.68,0,30.93,45.17A24.94,24.94,0,0,1,351,464.8Zm51.13,16H368.61v-9.5l-14.47,12a25,25,0,0,1,1.54,25.17l70.93,45.32a12.43,12.43,0,0,1,4.52-3l-11.21-69.41Zm2.6-39.85v31l2.44,8.25,11.27,69.75.68,0,27.17-88.28a12.39,12.39,0,0,1-6.45-10.89v-.69Zm0-174.08V421.19l36.38,9.54a12.47,12.47,0,0,1,10.14-6.87l10.72-88.09a24.94,24.94,0,0,1-13.83-40.13Zm0-57.93v50.89l46.93,46.89a24.89,24.89,0,0,1,7-4.05l-19.23-69.55c-.27,0-.55,0-.83,0a12.43,12.43,0,0,1-12.43-12.42,12.85,12.85,0,0,1,.25-2.5Zm-111.08-7.71a25,25,0,0,1-20.83,17l.06,113.67,72.23-119.48ZM290.1,154a24.93,24.93,0,0,1,22.41,24.82,23.86,23.86,0,0,1-.17,2.95l53.12,11.51h0L296.3,48.43a24.89,24.89,0,0,1-6,1.35Zm-65-.68a12.48,12.48,0,0,1-9.13,5.1l-4.66,36.4L285.51,317l-.07-113.38a25,25,0,0,1-22.82-24.86,25.24,25.24,0,0,1,1.28-8Zm-1.65-16.44a12.42,12.42,0,0,1,4,9.15,12.9,12.9,0,0,1-.3,2.73L266,166.3A24.94,24.94,0,0,1,285.13,154l.18-104.19a25,25,0,0,1-8.13-2.26Zm-8.4-3.28a12.36,12.36,0,0,1,4.13.71l53.75-89.35a25.46,25.46,0,0,1-5.24-5.28L157.81,103.09l-3.92,2.28a12,12,0,0,1,.15,1.91,12.81,12.81,0,0,1-.49,3.47l51.88,27.37A12.42,12.42,0,0,1,215,133.58Zm-82.21,39.81v.11a12.41,12.41,0,0,1-9.16,12L104,260.34a25.12,25.12,0,0,1,11.5,8.74l38.14-22.19V191.61h53L211,157.76a12.49,12.49,0,0,1-6.92-5.85Zm-3.69-8.74a12.85,12.85,0,0,1,2.65,3.84l70.86-21.37c0-.37-.05-.73-.05-1.11a12.51,12.51,0,0,1,.5-3.48l-51.88-27.37a12.4,12.4,0,0,1-9.61,4.53h-.68ZM36.4,199.11a25.06,25.06,0,0,1-8.94,2.64V336.26a12.44,12.44,0,0,1,4.77,2.1L75.34,298.7a24.95,24.95,0,0,1,4.2-34.31Zm13.47-20.76a24.91,24.91,0,0,1-9.29,18l43.11,65.26a25.17,25.17,0,0,1,15.51-2.55l19.24-73.32a12.47,12.47,0,0,1-10.12-9.37Zm-2.16-11.68a25.58,25.58,0,0,1,1.95,6.71l58.5-2a12.43,12.43,0,0,1,16.56-9.57l11.38-43.42a12.68,12.68,0,0,1-2.28-1.47Zm263-131.62,95.26,55a12.43,12.43,0,0,1,21.72,8.25,12.78,12.78,0,0,1-.63,3.93l100.55,58.06a25,25,0,1,1,26.34,38.78v137.2a12.42,12.42,0,0,1,0,24.34v95.45a24.95,24.95,0,1,1-22.75,39.41l-83.84,48.4a12.11,12.11,0,0,1,.63,3.92A12.42,12.42,0,0,1,426.24,556L310.93,622.6a25,25,0,1,1-45.5,0L150.12,556a12.42,12.42,0,0,1-21.07-12.17l-83.84-48.4a25,25,0,1,1-22.75-39.41V360.6a12.42,12.42,0,0,1,0-24.34V201.75a25,25,0,1,1,22.75-39.4l85.39-49.3a12.43,12.43,0,0,1,21.51-12.42L265.16,35.35a25,25,0,1,1,45.51-.3Z"/><g class="cls-2"><rect class="cls-1" width="576.36" height="657.8"/></g><path class="cls-3" d="M663.29,345.34V165.64h34.4l76.5,126.82H756l75.22-126.82h34.14l.51,179.7h-39l-.26-119.88h7.19L773.68,326.35H754.94L693.58,225.46h8.73V345.34Z"/><path class="cls-4" d="M974.17,347.4q-23.61,0-41.46-9.24a68.17,68.17,0,0,1-27.59-25.29q-9.76-16-9.76-36.58,0-20.81,9.63-36.84a68.29,68.29,0,0,1,26.31-25.16q16.69-9.1,37.74-9.12,20.28,0,36.58,8.61a64.37,64.37,0,0,1,25.8,24.64q9.49,16.05,9.5,38.38c0,1.54-.09,3.3-.26,5.26s-.34,3.81-.51,5.52H928V264.22h91.13l-15.4,6.93a38.39,38.39,0,0,0-4.37-18.74A32,32,0,0,0,987.27,240a35.09,35.09,0,0,0-18-4.49A35.76,35.76,0,0,0,951.2,240,31.44,31.44,0,0,0,939,252.54q-4.37,8.09-4.36,19.13v6.16a38.77,38.77,0,0,0,5,19.89,32.53,32.53,0,0,0,14.12,13.09q9.11,4.5,21.43,4.5A51.82,51.82,0,0,0,994.58,312a47.16,47.16,0,0,0,15.28-10l21.31,23.1a62.15,62.15,0,0,1-23.88,16.56Q992.91,347.4,974.17,347.4Z"/><path class="cls-5" d="M1051.19,241.12V210.31H1147v30.81ZM1124.1,347.4q-24.39,0-38-12.45t-13.6-37.1V176.68h40V297.34q0,8.73,4.63,13.47t12.57,4.75a25.72,25.72,0,0,0,16.18-5.13l10.78,28.24a44.14,44.14,0,0,1-14.76,6.55A72.52,72.52,0,0,1,1124.1,347.4Z"/><path class="cls-6" d="M1221.91,347.4q-16.19,0-27.73-5.52a42.1,42.1,0,0,1-17.71-15,40.74,40.74,0,0,1-.13-42.87q6-9.24,19.12-14.51t34.15-5.26h36.71v23.36H1234q-14.12,0-19.38,4.62a14.73,14.73,0,0,0-5.26,11.56,14.4,14.4,0,0,0,6,12.19q6,4.5,16.56,4.49a34.38,34.38,0,0,0,18-4.75,27.23,27.23,0,0,0,11.55-14l6.16,18.49a35.75,35.75,0,0,1-15.91,20.28Q1240.13,347.4,1221.91,347.4Zm42.1-2.06V318.39l-2.57-5.91V264.22q0-12.84-7.83-20t-24-7.19a69.69,69.69,0,0,0-21.69,3.46,57.4,57.4,0,0,0-18.1,9.37l-14.38-28a86.73,86.73,0,0,1,27.21-12.32,121.75,121.75,0,0,1,32.35-4.37q31.57,0,49,14.89t17.46,46.47v78.81Z"/><path class="cls-7" d="M1405.46,347.4q-22.34,0-39.79-9.12A68.33,68.33,0,0,1,1338.33,313q-9.88-16.19-9.89-36.71,0-20.81,9.89-36.84a68.68,68.68,0,0,1,27.34-25.16q17.44-9.1,39.79-9.12,21.81,0,38,9.12a55.63,55.63,0,0,1,23.88,26.06L1436.26,257q-5.38-9.75-13.47-14.37A34.87,34.87,0,0,0,1405.2,238a37,37,0,0,0-18.48,4.63,33.46,33.46,0,0,0-13,13.09q-4.76,8.47-4.75,20.54t4.75,20.53a33.48,33.48,0,0,0,13,13.1,37,37,0,0,0,18.48,4.62,35.59,35.59,0,0,0,17.59-4.5q8.09-4.49,13.47-14.5l31.07,16.94a55.8,55.8,0,0,1-23.88,25.8Q1427.28,347.4,1405.46,347.4Z"/><path class="cls-8" d="M1554.35,347.4q-22.08,0-39.14-9.24a70.37,70.37,0,0,1-27-25.29q-9.88-16-9.88-36.58,0-20.81,9.88-36.84a69.38,69.38,0,0,1,27-25.16q17.07-9.1,39.14-9.12,21.83,0,39,9.12a68.6,68.6,0,0,1,26.95,25q9.75,15.92,9.76,37,0,20.54-9.76,36.58a69.23,69.23,0,0,1-26.95,25.29Q1576.18,347.4,1554.35,347.4Zm0-32.86a35.16,35.16,0,0,0,18-4.62,32.93,32.93,0,0,0,12.57-13.22q4.62-8.61,4.63-20.41,0-12.07-4.63-20.54a33.1,33.1,0,0,0-12.57-13.09,37.21,37.21,0,0,0-35.95,0,34,34,0,0,0-12.7,13.09q-4.76,8.47-4.75,20.54,0,11.81,4.75,20.41a33.77,33.77,0,0,0,12.7,13.22A35.15,35.15,0,0,0,1554.35,314.54Z"/><path class="cls-9" d="M1833.66,205.17q16.44,0,29.14,6.55a47.14,47.14,0,0,1,20,20q7.31,13.47,7.31,34.52v79.07h-40.05v-72.9q0-16.69-6.93-24.65t-19.51-8a30.91,30.91,0,0,0-15.66,4,26.81,26.81,0,0,0-10.78,11.94q-3.86,8-3.85,20.28v69.31h-40v-72.9q0-16.69-6.8-24.65t-19.38-8a30.91,30.91,0,0,0-15.66,4,26.83,26.83,0,0,0-10.79,11.94q-3.84,8-3.85,20.28v69.31h-40V207.23H1695V245l-7.19-11a49.46,49.46,0,0,1,20.41-21.44q13.21-7.32,30.16-7.32,19,0,33.25,9.63t18.87,29.4l-14.12-3.85a55.31,55.31,0,0,1,22.2-25.68Q1813.89,205.18,1833.66,205.17Z"/><path d="M663.48,473l31-67.9h7.09l31,67.9h-7.57l-28.52-63.73h2.91L671,473Zm12.23-18.14,2.13-5.82h39.48l2.13,5.82Z"/><path d="M742.44,473v-72h6.89v72Z"/><path d="M768.54,473v-72h6.88v72Z"/><path d="M790.84,449.76v-6h25.42v6Z"/><path d="M835.17,410.86a4.88,4.88,0,0,1-3.59-1.45,4.77,4.77,0,0,1-1.45-3.49,4.61,4.61,0,0,1,1.45-3.45,5,5,0,0,1,3.59-1.4,5.09,5.09,0,0,1,3.59,1.35,4.47,4.47,0,0,1,1.46,3.4,5,5,0,0,1-1.41,3.59A4.84,4.84,0,0,1,835.17,410.86ZM831.68,473V422.11h6.89V473Z"/><path d="M883.77,421.63A23.82,23.82,0,0,1,894.68,424a17.05,17.05,0,0,1,7.37,7.22,25.15,25.15,0,0,1,2.67,12.22V473h-6.89V444.13q0-8-4-12.17t-11.3-4.12a19.5,19.5,0,0,0-9.46,2.18,15,15,0,0,0-6.21,6.3,21.1,21.1,0,0,0-2.18,9.95V473h-6.89V422.11h6.6v14l-1.07-2.62a18.55,18.55,0,0,1,7.76-8.68A24.56,24.56,0,0,1,883.77,421.63Z"/><path d="M919.56,449.76v-6H945v6Z"/><path d="M982.13,473.52a26.16,26.16,0,0,1-13.29-3.34,24.57,24.57,0,0,1-9.22-9.27,28.3,28.3,0,0,1,0-26.86,24.46,24.46,0,0,1,9.22-9.12,28.5,28.5,0,0,1,26.72.05,24.48,24.48,0,0,1,9.21,9.11,26.24,26.24,0,0,1,3.35,13.44,26.54,26.54,0,0,1-3.35,13.43,24.13,24.13,0,0,1-9.26,9.22A26.71,26.71,0,0,1,982.13,473.52Zm0-6.11a19.14,19.14,0,0,0,9.79-2.47,17.76,17.76,0,0,0,6.74-7,23.28,23.28,0,0,0,0-20.91,17.83,17.83,0,0,0-6.74-6.93,20.21,20.21,0,0,0-19.4,0,18.23,18.23,0,0,0-6.79,6.93,22.95,22.95,0,0,0,0,20.91,18.25,18.25,0,0,0,6.74,7A18.74,18.74,0,0,0,982.13,467.41Z"/><path d="M1048.18,421.63a23.79,23.79,0,0,1,10.91,2.38,17.07,17.07,0,0,1,7.38,7.22,25.26,25.26,0,0,1,2.66,12.22V473h-6.88V444.13q0-8-4-12.17t-11.3-4.12a19.52,19.52,0,0,0-9.46,2.18,15,15,0,0,0-6.2,6.3,21,21,0,0,0-2.19,9.95V473h-6.88V422.11h6.59v14l-1.07-2.62a18.57,18.57,0,0,1,7.77-8.68A24.52,24.52,0,0,1,1048.18,421.63Z"/><path d="M1109.39,473.52a28.28,28.28,0,0,1-14-3.34A24.24,24.24,0,0,1,1086,461a26.36,26.36,0,0,1-3.39-13.43,27,27,0,0,1,3.25-13.39,24,24,0,0,1,8.92-9.16,24.54,24.54,0,0,1,12.76-3.35,24.83,24.83,0,0,1,12.75,3.25,23.15,23.15,0,0,1,8.78,9.12,27.84,27.84,0,0,1,3.2,13.53c0,.32,0,.66,0,1s0,.72,0,1.11h-44.33v-5.14h40.65l-2.72,2a20,20,0,0,0-2.38-9.85A17.5,17.5,0,0,0,1117,430a18.07,18.07,0,0,0-9.4-2.42,18.42,18.42,0,0,0-9.41,2.42,16.87,16.87,0,0,0-6.5,6.79,20.93,20.93,0,0,0-2.33,10v1.07a20,20,0,0,0,2.57,10.23,17.91,17.91,0,0,0,7.18,6.89,21.88,21.88,0,0,0,10.52,2.47,22.62,22.62,0,0,0,8.68-1.65,17.93,17.93,0,0,0,6.94-5l3.88,4.46a21.73,21.73,0,0,1-8.49,6.21A28.73,28.73,0,0,1,1109.39,473.52Z"/><path d="M1173.21,473v-67.9h27.65a40.32,40.32,0,0,1,19.06,4.32,31.63,31.63,0,0,1,12.75,12,36.44,36.44,0,0,1,0,35.3,31.63,31.63,0,0,1-12.75,12,40.32,40.32,0,0,1-19.06,4.32Zm7.18-6.21h20.08a32.82,32.82,0,0,0,15.66-3.54,25.78,25.78,0,0,0,10.34-9.8,30.11,30.11,0,0,0,0-28.85,25.93,25.93,0,0,0-10.34-9.75,32.82,32.82,0,0,0-15.66-3.54h-20.08Z"/><path d="M1255.37,410.86a4.88,4.88,0,0,1-3.59-1.45,4.77,4.77,0,0,1-1.45-3.49,4.61,4.61,0,0,1,1.45-3.45,5,5,0,0,1,3.59-1.4,5.09,5.09,0,0,1,3.59,1.35,4.46,4.46,0,0,1,1.45,3.4,5,5,0,0,1-1.4,3.59A4.84,4.84,0,0,1,1255.37,410.86ZM1251.88,473V422.11h6.89V473Z"/><path d="M1298.44,471.1a27.08,27.08,0,0,1-13.1-3.15,23.44,23.44,0,0,1-9.16-8.78,24.76,24.76,0,0,1-3.35-12.9,24.47,24.47,0,0,1,3.35-12.85,23.22,23.22,0,0,1,9.16-8.69,27.4,27.4,0,0,1,13.1-3.1,26.25,26.25,0,0,1,12.22,2.81,21,21,0,0,1,8.63,8.34,30,30,0,0,1,0,27,21.61,21.61,0,0,1-8.63,8.44A25.48,25.48,0,0,1,1298.44,471.1Zm1.26,21.24a43.84,43.84,0,0,1-13.39-2,26.37,26.37,0,0,1-10.38-5.81l3.5-5.24a26.68,26.68,0,0,0,8.87,5.09,33.05,33.05,0,0,0,11.2,1.89q9.7,0,14.26-4.51t4.56-14V455l1-8.73-.68-8.73V422.11h6.6v44.72q0,13.2-6.45,19.35T1299.7,492.34Zm-.58-27.35a20.49,20.49,0,0,0,10-2.38A17.82,17.82,0,0,0,1316,456a18.68,18.68,0,0,0,2.52-9.75,18.38,18.38,0,0,0-2.52-9.7,17.93,17.93,0,0,0-6.89-6.55,22.07,22.07,0,0,0-19.94,0,17.43,17.43,0,0,0-6.88,6.55,18.64,18.64,0,0,0-2.48,9.7,19,19,0,0,0,2.48,9.75,17.32,17.32,0,0,0,6.88,6.59A20.61,20.61,0,0,0,1299.12,465Z"/><path d="M1347.91,410.86a4.86,4.86,0,0,1-3.59-1.45,4.78,4.78,0,0,1-1.46-3.49,4.62,4.62,0,0,1,1.46-3.45,5,5,0,0,1,3.59-1.4,5.09,5.09,0,0,1,3.59,1.35,4.46,4.46,0,0,1,1.45,3.4,5,5,0,0,1-1.4,3.59A4.85,4.85,0,0,1,1347.91,410.86ZM1344.42,473V422.11h6.88V473Z"/><path d="M1362.55,427.84v-5.73h31.53v5.73Zm24.06,45.68q-7.18,0-11.06-3.88t-3.88-11V410.86h6.89V458.3c0,3,.76,5.27,2.28,6.88a8.54,8.54,0,0,0,6.55,2.43A11.11,11.11,0,0,0,1395,465l2.43,4.95a12.8,12.8,0,0,1-4.9,2.71A20.11,20.11,0,0,1,1386.61,473.52Z"/><path d="M1424.25,473.52a24.2,24.2,0,0,1-10-1.89,14.73,14.73,0,0,1-6.45-5.24,13.55,13.55,0,0,1-2.23-7.71,14.07,14.07,0,0,1,1.89-7.22,13.31,13.31,0,0,1,6.21-5.24q4.32-2,11.59-2h17.56v5.14h-17.36q-7.38,0-10.24,2.62a8.48,8.48,0,0,0-2.86,6.5,8.35,8.35,0,0,0,3.4,7q3.39,2.63,9.5,2.62a18.46,18.46,0,0,0,10-2.66,15.27,15.27,0,0,0,6.16-7.72l1.55,4.76a16.2,16.2,0,0,1-6.74,8A22.39,22.39,0,0,1,1424.25,473.52Zm17.55-.48V461.79l-.29-1.85V441.13q0-6.51-3.64-10t-10.81-3.5a26.89,26.89,0,0,0-9.41,1.65,24,24,0,0,0-7.57,4.37l-3.1-5.14a27.61,27.61,0,0,1,9.31-5.1,36.45,36.45,0,0,1,11.45-1.79q9.88,0,15.28,4.9t5.38,14.89V473Z"/><path d="M1467.12,473v-72H1474v72Z"/><path d="M1532.3,473.52a38.92,38.92,0,0,1-11.93-1.79,25.74,25.74,0,0,1-8.83-4.51l3.11-5.43a29.47,29.47,0,0,0,7.95,4,30.69,30.69,0,0,0,10.19,1.7q7.28,0,10.47-2.28a7.08,7.08,0,0,0,3.2-6.06,5.57,5.57,0,0,0-1.79-4.41,11.75,11.75,0,0,0-4.7-2.43,58.5,58.5,0,0,0-6.5-1.41c-2.4-.38-4.77-.84-7.13-1.35a26.42,26.42,0,0,1-6.45-2.28,12.72,12.72,0,0,1-4.71-4.13,12.1,12.1,0,0,1-1.79-7,12.59,12.59,0,0,1,2.33-7.47,15.35,15.35,0,0,1,6.83-5.19,28.52,28.52,0,0,1,11-1.89,38.7,38.7,0,0,1,9.9,1.31,27.27,27.27,0,0,1,8.15,3.44l-3,5.53a23.34,23.34,0,0,0-7.28-3.35,30.79,30.79,0,0,0-7.76-1q-6.88,0-10.13,2.37a7.23,7.23,0,0,0-3.25,6.07,5.83,5.83,0,0,0,1.79,4.55,12.3,12.3,0,0,0,4.75,2.57,47.88,47.88,0,0,0,6.5,1.51q3.54.58,7.08,1.4a32.25,32.25,0,0,1,6.5,2.24,11.86,11.86,0,0,1,4.76,4,11.6,11.6,0,0,1,1.79,6.74,12.38,12.38,0,0,1-2.47,7.72,15.88,15.88,0,0,1-7.18,5A32,32,0,0,1,1532.3,473.52Z"/><path d="M1586.72,473.52a26.18,26.18,0,0,1-13.29-3.34,24.64,24.64,0,0,1-9.22-9.27,28.3,28.3,0,0,1,0-26.86,24.53,24.53,0,0,1,9.22-9.12,28.5,28.5,0,0,1,26.72.05,24.44,24.44,0,0,1,9.22,9.11,26.33,26.33,0,0,1,3.34,13.44,26.63,26.63,0,0,1-3.34,13.43,24.08,24.08,0,0,1-9.27,9.22A26.68,26.68,0,0,1,1586.72,473.52Zm0-6.11a19.21,19.21,0,0,0,9.8-2.47,17.83,17.83,0,0,0,6.74-7,23.36,23.36,0,0,0,0-20.91,17.9,17.9,0,0,0-6.74-6.93,20.21,20.21,0,0,0-19.4,0,18.16,18.16,0,0,0-6.79,6.93,22.87,22.87,0,0,0,0,20.91,18.18,18.18,0,0,0,6.74,7A18.7,18.7,0,0,0,1586.72,467.41Z"/><path d="M1626.78,473v-72h6.89v72Z"/><path d="M1673.92,473.52a25.07,25.07,0,0,1-11.35-2.42,17.22,17.22,0,0,1-7.52-7.28,25,25,0,0,1-2.66-12.12V422.11h6.88v28.81q0,8.16,4,12.27t11.3,4.13a18.68,18.68,0,0,0,9.26-2.19,14.46,14.46,0,0,0,6-6.35,22.12,22.12,0,0,0,2.08-10V422.11h6.89V473h-6.6v-14l1.07,2.52a18.82,18.82,0,0,1-7.52,8.78A22.1,22.1,0,0,1,1673.92,473.52Z"/><path d="M1710.1,427.84v-5.73h31.53v5.73Zm24.06,45.68q-7.19,0-11.06-3.88t-3.88-11V410.86h6.89V458.3c0,3,.76,5.27,2.28,6.88a8.53,8.53,0,0,0,6.54,2.43,11.14,11.14,0,0,0,7.57-2.62l2.42,4.95a12.76,12.76,0,0,1-4.89,2.71A20.11,20.11,0,0,1,1734.16,473.52Z"/><path d="M1760.93,410.86a4.88,4.88,0,0,1-3.59-1.45,4.77,4.77,0,0,1-1.45-3.49,4.61,4.61,0,0,1,1.45-3.45,5,5,0,0,1,3.59-1.4,5.09,5.09,0,0,1,3.59,1.35,4.46,4.46,0,0,1,1.45,3.4,5,5,0,0,1-1.4,3.59A4.84,4.84,0,0,1,1760.93,410.86ZM1757.44,473V422.11h6.88V473Z"/><path d="M1804.29,473.52a26.18,26.18,0,0,1-13.29-3.34,24.64,24.64,0,0,1-9.22-9.27,28.3,28.3,0,0,1,0-26.86,24.53,24.53,0,0,1,9.22-9.12,28.5,28.5,0,0,1,26.72.05,24.51,24.51,0,0,1,9.22,9.11,26.33,26.33,0,0,1,3.34,13.44,26.63,26.63,0,0,1-3.34,13.43,24.08,24.08,0,0,1-9.27,9.22A26.68,26.68,0,0,1,1804.29,473.52Zm0-6.11a19.21,19.21,0,0,0,9.8-2.47,17.83,17.83,0,0,0,6.74-7,23.36,23.36,0,0,0,0-20.91,17.9,17.9,0,0,0-6.74-6.93,20.21,20.21,0,0,0-19.4,0,18.16,18.16,0,0,0-6.79,6.93,22.87,22.87,0,0,0,0,20.91,18.18,18.18,0,0,0,6.74,7A18.7,18.7,0,0,0,1804.29,467.41Z"/><path d="M1870.34,421.63a23.86,23.86,0,0,1,10.92,2.38,17.11,17.11,0,0,1,7.37,7.22,25.15,25.15,0,0,1,2.67,12.22V473h-6.89V444.13q0-8-4-12.17t-11.3-4.12a19.46,19.46,0,0,0-9.45,2.18,14.92,14.92,0,0,0-6.21,6.3,21,21,0,0,0-2.18,9.95V473h-6.89V422.11h6.59v14l-1.06-2.62a18.49,18.49,0,0,1,7.76-8.68A24.52,24.52,0,0,1,1870.34,421.63Z"/></g></g></svg>